<svg xmlns="http://www.w3.org/2000/svg" viewBox="0 0 64 64" fill="none">
  <defs>
    <linearGradient id="sciGrad" x1="0" y1="0" x2="1" y2="1">
      <stop offset="0%" stop-color="#3eff8b"/>
      <stop offset="100%" stop-color="#00f2ff"/>
    </linearGradient>
    <filter id="sciGlow">
      <feGaussianBlur stdDeviation="1.5" result="blur"/>
      <feMerge><feMergeNode in="blur"/><feMergeNode in="SourceGraphic"/></feMerge>
    </filter>
  </defs>
  <!-- flask body -->
  <path d="M24 8h16v16l12 28a4 4 0 01-3.6 5.6H15.6A4 4 0 0112 52L24 24V8z"
    stroke="url(#sciGrad)" stroke-width="2.5" fill="none" filter="url(#sciGlow)" stroke-linejoin="round"/>
  <!-- flask neck -->
  <line x1="22" y1="8" x2="42" y2="8" stroke="url(#sciGrad)" stroke-width="2.5" stroke-linecap="round"/>
  <!-- liquid -->
  <path d="M18 44l8-6 8 4 8-4 6 6a4 4 0 01-3.6 5.6H15.6A4 4 0 0112 52l6-8z"
    fill="#3eff8b" opacity="0.25"/>
  <!-- bubbles -->
  <circle cx="28" cy="40" r="2" fill="#3eff8b" opacity="0.6"/>
  <circle cx="35" cy="36" r="1.5" fill="#00f2ff" opacity="0.5"/>
  <circle cx="30" cy="46" r="1" fill="#3eff8b" opacity="0.4"/>
</svg>
