<svg xmlns="http://www.w3.org/2000/svg" viewBox="0 0 64 64" fill="none">
  <defs>
    <linearGradient id="mpGrad" x1="0" y1="0" x2="1" y2="1">
      <stop offset="0%" stop-color="#00f2ff"/>
      <stop offset="100%" stop-color="#3eff8b"/>
    </linearGradient>
    <filter id="mpGlow">
      <feGaussianBlur stdDeviation="1.5" result="blur"/>
      <feMerge><feMergeNode in="blur"/><feMergeNode in="SourceGraphic"/></feMerge>
    </filter>
  </defs>
  <!-- controller shape -->
  <path d="M8 28a8 8 0 018-8h32a8 8 0 018 8v4a16 16 0 01-8 14l-4 6a4 4 0 01-3.4 2H23.4a4 4 0 01-3.4-2l-4-6a16 16 0 01-8-14v-4z"
    stroke="url(#mpGrad)" stroke-width="2.5" fill="none" filter="url(#mpGlow)"/>
  <!-- d-pad left -->
  <rect x="16" y="26" width="4" height="12" rx="1" fill="#00f2ff" opacity="0.5"/>
  <rect x="14" y="30" width="8" height="4" rx="1" fill="#00f2ff" opacity="0.5"/>
  <!-- buttons right -->
  <circle cx="44" cy="28" r="3" stroke="#3eff8b" stroke-width="1.5" fill="none"/>
  <circle cx="50" cy="32" r="3" stroke="#00f2ff" stroke-width="1.5" fill="none"/>
  <circle cx="44" cy="36" r="3" stroke="#bc13fe" stroke-width="1.5" fill="none"/>
  <circle cx="38" cy="32" r="3" stroke="#ffa500" stroke-width="1.5" fill="none"/>
  <!-- center signal -->
  <path d="M29 30l3-4 3 4" stroke="#00f2ff" stroke-width="1.5" fill="none" stroke-linecap="round" opacity="0.6"/>
  <path d="M27 33l5-7 5 7" stroke="#00f2ff" stroke-width="1" fill="none" stroke-linecap="round" opacity="0.3"/>
</svg>
